/* XPM */
static char *lif_but[] = {
/* columns rows colors chars-per-pixel */
"19 19 34 1",
"  c gray44",
". c #717171",
"X c #7B7B7B",
"o c #838383",
"O c gray54",
"+ c #909090",
"@ c #939393",
"# c #939394",
"$ c #979797",
"% c #9A9A9A",
"& c gray61",
"* c #A0A0A0",
"= c #A4A4A4",
"- c gray65",
"; c gray66",
": c gray67",
"> c #AEAEAE",
", c gray70",
"< c #BCBCBE",
"1 c #C0C0C2",
"2 c #C5C5C6",
"3 c #C6C6C6",
"4 c #C9C9CA",
"5 c #CDCDCD",
"6 c gray81",
"7 c #D0D0D0",
"8 c gray85",
"9 c #E9E9E9",
"0 c #EAEAEA",
"q c #ECECEC",
"w c gray93",
"e c #EFEFEF",
"r c gray94",
"t c gray95",
/* pixels */
"8:>,,,,,,,,,,,,,>:8",
":3ttttttttttttttt3:",
":tteeteeeeteeeettr:",
":eeeeeeeeeeeeeeeww:",
"-ee0e0ee0e0ee0eeww;",
"-0e00e00e0e00e00q0;",
"-00000000000000000=",
"&00000999999900099*",
"*000000099e0000000*",
"&66766666566566666&",
"&67767666666666666&",
"$66666666666666666$",
"#55546555555655555#",
"+44444444444444444+",
"O33322223233333332O",
"o11111111111111111o",
"X<<<<<<<<<<<<<<<<<X",
"X#<<<<<<<<<<<<<<<#X",
"8  ............. .8"
};
