/* XPM */
static char *lif_tex[] = {
/* columns rows colors chars-per-pixel */
"28 18 53 1",
"  c #373737",
". c gray32",
"X c #535353",
"o c gray35",
"O c #6D6D6D",
"+ c gray43",
"@ c #6F6F6F",
"# c gray44",
"$ c #747474",
"% c gray48",
"& c #7B7B7B",
"* c #7C7C7C",
"= c gray49",
"- c #808080",
"; c #818181",
": c #898989",
"> c #8E8E8E",
", c gray59",
"< c #979797",
"1 c #989898",
"2 c gray60",
"3 c #9B9B9B",
"4 c gray63",
"5 c #A2A2A2",
"6 c #A4A4A4",
"7 c gray65",
"8 c #B2B2B2",
"9 c #B6B6B6",
"0 c #BBBBBD",
"q c #BCBCBD",
"w c #BCBCBE",
"e c gray75",
"r c #BFBFC0",
"t c #C0C0C0",
"y c #C1C1C1",
"u c #C0C0C2",
"i c gray76",
"p c #C5C5C6",
"a c #C6C6C6",
"s c #C9C9CA",
"d c #CDCDCD",
"f c gray81",
"g c #D0D0D0",
"h c #DDDDDD",
"j c #E9E9E9",
"k c #EAEAEA",
"l c #ECECEC",
"z c gray93",
"x c #EFEFEF",
"c c gray94",
"v c #F1F1F1",
"b c gray95",
"n c #F4F4F4",
/* pixels */
"i-##+###########@@@@@$@@@$-r",
"-anbbbbbbbbbbbbbbcbbbbbbbbp-",
"+bbbzbbbbzbzbzbbccccccccxxb+",
"+bzzbzzzzbzbzbzzczczcxxxxxx$",
"#zzzzzzzzzzzzzzzzzzzzzzzxll+",
"#zzzjzzzjzzzzzjzkzzzzkzkllx+",
"#j9>>o$>>g>$>>>>kh$3kkk$>jl+",
"#jjjj:8jjj:8jjjjjjjO<jO<ljj+",
"#ggff#3fgg#+1311ggggX *gggg#",
"#ggff#<fgg++1113gggr #Xgggg@",
"#ffff#<fgd+1gdggrsr 7g*Xfff@",
"#fdfs+<fdd+X++++rr 7sff%Xrd@",
"#sssssssssssssssgssdsssssss#",
"#pppppppppppaaparrrsrsrrrsr#",
"#rrrrrrrrprrprrrrrrrrrrrrrr$",
"#wrrwwwwwww00wwwrrrrrrrrrrr$",
"&4rrrrrrrrrrrrrrrrrrrrrrrr4&",
"r%##+OOOOOOOOO++OO++OOOO@O$r"
};
