/* XPM */
static char *lif_cs[] = {
/* columns rows colors chars-per-pixel */
"28 18 47 1",
"  c #373737",
". c gray27",
"X c gray32",
"o c #535353",
"O c #606060",
"+ c gray40",
"@ c #6D6D6D",
"# c gray43",
"$ c gray44",
"% c #747474",
"& c gray48",
"* c #7B7B7B",
"= c #7C7C7C",
"- c #808080",
"; c #818181",
": c #898989",
"> c #8E8E8E",
", c #989898",
"< c gray60",
"1 c gray63",
"2 c #A2A2A2",
"3 c #A4A4A4",
"4 c #B2B2B2",
"5 c #B4B4B4",
"6 c #BBBBBD",
"7 c #BCBCBD",
"8 c #BCBCBE",
"9 c gray75",
"0 c #BFBFC0",
"q c #C0C0C0",
"w c #C0C0C2",
"e c gray76",
"r c #C5C5C6",
"t c #C6C6C6",
"y c #C9C9CA",
"u c #CDCDCD",
"i c gray81",
"p c #D0D0D0",
"a c #E9E9E9",
"s c #EAEAEA",
"d c #ECECEC",
"f c gray93",
"g c #EFEFEF",
"h c gray94",
"j c #F1F1F1",
"k c gray95",
"l c #F4F4F4",
/* pixels */
"e-$$#$$$$$$$$$$$$$$$$$$$$$;0",
"-tlkkkkkkkkkkkkkkkkkkkkkkkr;",
"#kkkfkkkkfkfkfkkgggggggkhhk$",
"#kffkffffkfkfkffgggfgggghhh$",
"$fffffffffffffffdddfffdddhh$",
"$fffffffffffffafddddddddsss$",
"$aaaaae%>>>--ap+>>>->daasss$",
"$aaaaaOaaaaaoa:4aada*aaassa$",
"$ppppp ppppppp<o<<<<0pppppp$",
"$ppppp ipppppppt<<<<.0ppppp$",
"$iiiii.iiiip i$<iiii+<ppppp#",
"$uuuuu3X##@ooi4o@@@#Xyyiypy#",
"$yyyyyyyyyyypyyyyyyyyyyyypy$",
"$rrrr0rrrrr0ytttrrrr0y00000$",
"$00000000000000000000000000&",
"$00000000000060000000000000$",
"&10000000000000000000000001&",
"0&$$@@@@@@@@@@@@@@#@@@@@##&0"
};
