/* XPM */
static char *lif_shd[] = {
/* columns rows colors chars-per-pixel */
"28 18 46 1",
"  c gray32",
". c #535353",
"X c #606060",
"o c #6D6D6D",
"O c gray43",
"+ c #6F6F6F",
"@ c gray44",
"# c #747474",
"$ c gray48",
"% c #7B7B7B",
"& c #7C7C7C",
"* c #808080",
"= c #818181",
"- c #898989",
"; c #8B8B8B",
": c #8E8E8E",
"> c gray60",
", c #9B9B9B",
"< c gray63",
"1 c #A2A2A2",
"2 c gray65",
"3 c gray70",
"4 c #BBBBBD",
"5 c #BCBCBD",
"6 c #BCBCBE",
"7 c gray75",
"8 c #BFBFC0",
"9 c #C0C0C0",
"0 c #C0C0C2",
"q c gray76",
"w c #C5C5C6",
"e c #C6C6C6",
"r c #C9C9CA",
"t c #CDCDCD",
"y c #CECECE",
"u c gray81",
"i c #D0D0D0",
"p c #E9E9E9",
"a c #EAEAEA",
"s c #ECECEC",
"d c gray93",
"f c #EFEFEF",
"g c gray94",
"h c #F1F1F1",
"j c gray95",
"k c #F4F4F4",
/* pixels */
"q*@@@@@@@@@@@@@@@@@@@@@@@@=8",
"*ekjjjjjjjjjjjjjjjjjjjjjjjw=",
"Ojjjjdjjjjjjjjjdffffffjfggj@",
"Ojddjddddddddddjffffffffggg@",
"@dddddddddddddddddddddddgsg+",
"@ddddpddddpddddpdadaaddasss+",
"@pp,*::*:p:pdppp:a#::::#usp+",
"@pp;pppp;p;ppppp-p-paaar-pp+",
"@uu+;>>>quO,>>>>+i+iiiiiOii@",
"@uuu2>>>.uO>>>>>+i+iiirrOii@",
"@uuouuuuOuOuuuuu+yOyyyy8&iy@",
"+uu$++++Ououttur+r oOOOX8yyO",
"@urrrrrrrrrrrrrrrrrrrru8rrr@",
"@8r8w8wwwwwweqeerr8r8r888r8@",
"+88888888888q88888888888888#",
"+88888848884444888888888888#",
"%<888888888888888888888888,$",
"8%++o+oo+oooooOoooOOoOooOo$8"
};
