/* XPM */
static char *liquidViewLastRib[] = {
/* columns rows colors chars-per-pixel */
"31 31 84 1",
"  c #00264D",
". c #0F3357",
"X c #1F4061",
"o c #2F4E6B",
"O c #3F5B76",
"+ c #4F6980",
"@ c #5F768A",
"# c #6F8495",
"$ c #7F919F",
"% c #FF944D",
"& c #FF964F",
"* c #FF9851",
"= c #FF9A52",
"- c #FF9B53",
"; c #FF9C55",
": c #FE9D5B",
"> c #FE9E5E",
", c #FFA058",
"< c #FFA159",
"1 c #FFA25A",
"2 c #FFA35B",
"3 c #FFA55C",
"4 c #FFA75E",
"5 c #FFAA61",
"6 c #FFAB62",
"7 c #FFAE64",
"8 c #FFAF66",
"9 c #FFB268",
"0 c #FFB56B",
"q c #FFB76D",
"w c #FFB96F",
"e c #FFBA6F",
"r c #FFBE73",
"t c #FFBE74",
"y c #FFC37B",
"u c #FFC47C",
"i c #FFC57E",
"p c #808080",
"a c gray53",
"s c #888888",
"d c #898989",
"f c #8F9FAA",
"g c #9FACB4",
"h c gray66",
"j c #A9A9A9",
"k c #AAAAAA",
"l c gray67",
"z c #AFBABE",
"x c #B7B6B2",
"c c #BFC7C9",
"v c #CBAC95",
"b c #FFC680",
"n c #FFC882",
"m c #FFCB86",
"M c #FFCB87",
"N c #FFCD89",
"B c #FFD291",
"V c #FFD393",
"C c #FFD495",
"Z c #FFD596",
"A c #FFD99D",
"S c #FFDB9F",
"D c #FFDCA0",
"F c #FFE1A8",
"G c #FFE3AB",
"H c #FFE3AC",
"J c #FFE5AF",
"K c #FFE8B9",
"L c #FFE9BC",
"P c #CFD5D3",
"I c #D7D7D7",
"U c #DFE2DD",
"Y c #FFEDC7",
"T c #FFF0CF",
"R c #FFF3D6",
"E c #EFF0E8",
"W c #F2F0E6",
"Q c #F5F3E9",
"! c #FFF7E2",
"~ c #FFF8E4",
"^ c #FFF8E5",
"/ c #FFF9E7",
"( c #FFFAEA",
") c #FFFDF2",
/* pixels */
"IkdpppppppppppppppppppppppppdlI",
"kxW)))))))))))))))))))))))))Wxl",
"aQ)))))))))))))))))))))))))))Qa",
"p)))))))))))))))))))))))))))))p",
"p))Oc)))))))@))$   OE$Oc   #))p",
"p))Oc))))P)) ))$$)Uog$OcO)P U)p",
"p))Oc))E. o$ O)$$))Og$OcO)U.E)p",
"p))Oc))zoc#) ))$XO OE$Oc   O))p",
"p))Oc))EX @E ))$@cX$)$OcO)PXz)p",
"p))Oc))czcXc ))$$)c U$OcO))+f)p",
"p))OoOOc.@.E #)$$))O@$Oc.Oo.U)p",
"p))Pccc)gfU)cg)UU))UcUPEcccU))p",
"p)))))))))))))))))))))))))))))p",
"p)))))))))))))))))))))))))))))p",
"pRRR!^()))))))))))))))))))))))p",
"pGGGGGGGGKLYTR!^)))))))))))^RRp",
"pGGGGGGGGGGGGGGGGGGGGGGGGGGGGGp",
"pGGGGGGGGGGGGGGGGGGGGGGGGGGGGGp",
"pGGGGGGGGGGGGGGGGGGGGGGGGGFZZia",
"pGGGGGGGGGGGGGGGGGGGGGSViyyryyp",
"pDGGGGGGGGGGGGGGGSBmurrreyeey0p",
"prrrtiibNNNNNbiutrrrrrrreyeyyyp",
"prrrrrrrrrrrrrrrrrrrrrrreeye0yp",
"prrrrrrrrrrrrrrrrrrrrrrryeeey0p",
"perrrrrrrrrrrrrrrrrreyeeyy0yy0p",
"p%*160rrrrrrrrrrrrrreyeyy00yy7p",
"p%%%%%%169eryrrtrrrryqeq073=%%p",
"p%%%%%%%%%%%%;;;33333-=%%%%%%%p",
"a>%%%%%%%%%%%%%%%%%%%%%%%%%%%<a",
"kv:%%%%%%%%%%%%%%%%%%%%%%%%%,vh",
"Ikappppppppppppp#pppppppppppahI"
};
