/* XPM */
static char *liquidInfo[] = {
/* columns rows colors chars-per-pixel */
"12 12 11 1",
"  c #484848",
". c gray33",
"X c gray38",
"o c #626262",
"O c #6C6C6C",
"+ c gray44",
"@ c gray70",
"# c gray72",
"$ c #BCBCBC",
"% c gray76",
"& c gray95",
/* pixels */
"#+........+#",
"X$&&&&&&&&$X",
".&&&&&&&&&&.",
".&&&&  &&&&.",
".&&&&&&&&&&.",
".&&&O  &&&&.",
".&&&&  &&&&.",
".&&&&  &&&&.",
".&&&    &&&.",
".&&&&&&&&&&.",
"X%&&&&&&&&%X",
"@X........X@"
};
