/* XPM */
static char * liquidIcon2_xpm[] = {
"54 32 108 2",
"  	c #BEBEBE",
". 	c #D1D1D1",
"+ 	c #B8B8B8",
"@ 	c #EBEBEB",
"# 	c #FCFCFC",
"$ 	c #EFEFEF",
"% 	c #B2B2B2",
"& 	c #DDDDDD",
"* 	c #ECECEC",
"= 	c #EDEDED",
"- 	c #EEEEEE",
"; 	c #E0E0E0",
"> 	c #ACACAC",
", 	c #CCCCCC",
"' 	c #D6D6D6",
") 	c #D8D8D8",
"! 	c #DADADA",
"~ 	c #DBDBDB",
"{ 	c #D5D5D5",
"] 	c #CFCFCF",
"^ 	c #A7A7A7",
"/ 	c #DEDEDE",
"( 	c #E1E1E1",
"_ 	c #D9D9D9",
": 	c #CDCDCD",
"< 	c #A2A2A2",
"[ 	c #DFDFDF",
"} 	c #E3E3E3",
"| 	c #E2E2E2",
"1 	c #9D9D9D",
"2 	c #D0D0D0",
"3 	c #E5E5E5",
"4 	c #B3B3B3",
"5 	c #7C7C7C",
"6 	c #989898",
"7 	c #D3D3D3",
"8 	c #E4E4E4",
"9 	c #7A7A7A",
"0 	c #969696",
"a 	c #E7E7E7",
"b 	c #767676",
"c 	c #949494",
"d 	c #C1C1C1",
"e 	c #E6E6E6",
"f 	c #929292",
"g 	c #9A9A9A",
"h 	c #A9A9A9",
"i 	c #B9B9B9",
"j 	c #747474",
"k 	c #BFBFBF",
"l 	c #B6B6B6",
"m 	c #EAEAEA",
"n 	c #727272",
"o 	c #C8C8C8",
"p 	c #797979",
"q 	c #919191",
"r 	c #B0B0B0",
"s 	c #818181",
"t 	c #E8E8E8",
"u 	c #AFAFAF",
"v 	c #E9E9E9",
"w 	c #6F6F6F",
"x 	c #C7C7C7",
"y 	c #878787",
"z 	c #7F7F7F",
"A 	c #8E8E8E",
"B 	c #9E9E9E",
"C 	c #DCDCDC",
"D 	c #ABABAB",
"E 	c #CBCBCB",
"F 	c #6D6D6D",
"G 	c #AEAEAE",
"H 	c #6B6B6B",
"I 	c #8D8D8D",
"J 	c #696969",
"K 	c #ADADAD",
"L 	c #8B8B8B",
"M 	c #676767",
"N 	c #C6C6C6",
"O 	c #8A8A8A",
"P 	c #B4B4B4",
"Q 	c #000000",
"R 	c #A8A8A8",
"S 	c #3D3D3D",
"T 	c #BCBCBC",
"U 	c #BABABA",
"V 	c #AAAAAA",
"W 	c #3E3E3E",
"X 	c #5E5E5E",
"Y 	c #7D7D7D",
"Z 	c #8C8C8C",
"` 	c #1F1F1F",
" .	c #3F3F3F",
"..	c #7E7E7E",
"+.	c #505050",
"@.	c #F1F1F1",
"#.	c #F3F3F3",
"$.	c #404040",
"%.	c #B1B1B1",
"&.	c #202020",
"*.	c #606060",
"=.	c #303030",
"-.	c #F8F8F8",
";.	c #F6F6F6",
">.	c #FAFAFA",
",.	c #FDFDFD",
"'.	c #FFFFFF",
").	c #C2C2C2",
"  . . . . . . . . . . . . . . . . . . . . . . . . . . . . . . . . . . . . . . . . . . . . . . . . . . . .   ",
"+ @ # # # # # # # # # # # # # # # # # # # # # # # # # # # # # # # # # # # # # # # # # # # # # # # # # # $ + ",
"% & * = = - - - - - - - - - - - - - - - - - - - - - - - - - - - - = = - - - - - - - - - - - - - - - - @ ; % ",
"> , ' ) ! ~ ! ~ ! ! & & & & & & & & & & & & & & & & & & & & & & & & & & & & & & & & & & & ! ) ~ & ! ~ { ] > ",
"^ ] ) / ( & ; ; & ; ; ; ; ; ; ; ; ; ; ; ; ; ; ; ; ; ; ; ; ; ; ; ; ; ; ; ; ; ; ; ; ; ; ; ; ; / / ; ; / _ : ^ ",
"< . ) [ } [ } | ; } | | | | | | | | | | | | | | | | | | | | | | | | | | | | | | | | | | | | } } | | ; ~ ] < ",
"1 2 / | | | | | 3 | 3 3 3 3 3 3 3 3 3 3 3 3 3 3 3 3 3 3 3 3 3 3 3 3 3 3 3 3 3 3 3 3 3 4 5 6 3 3 3 ( ( ; 7 1 ",
"6 ] & 8 8 8 8 8 8 8 8 8 8 8 8 8 8 8 8 8 8 8 8 8 8 8 8 8 8 8 8 8 8 8 8 8 8 8 8 8 8 8 8 % 9 0 3 3 3 ( ( [ 7 6 ",
"0 , / 3 3 3 3 3 3 a a a a a a a a a a a a a a a a a a a a a a a a a a a a a a a a a a % b c a a a 8 8 [ : 0 ",
"0 d / e e e e e f f 2 a a a a 2 f f a a 2 f f f g [ a 2 f f a h f i a 2 f f a a i j j j j f a a e } } [ k 0 ",
"0 l / m m m m m n n o a a a a o n n a a p n n n n 6 a o n n a q n r a o n n a a s n n n n q m m t e e ( u 0 ",
"0 > ) t t t v v w w x e e e e x w w e e w w y z w A e x w w e A w u e x w w e e w w B A w A v v t e e C D 0 ",
"0 > E 3 3 3 v v F F x t t t t x F F t t F F x G F A t x F F t A F G t x F F t t F F x G F A v v v t a ] D 0 ",
"0 G : ; v m v m H H o v v v v o H H v v H H o G H I v o H H v I H G v o H H v v H H o G H I v v v v ; ] % 0 ",
"0 G : ! ; m v m J J x v v v v x J J v v J J x K J L v x J J v L J K v x J J v v J J x K J L v v t ; ! ] % 0 ",
"0 G : ! ! / | a M M N v v v v N M M v v M M N > M O v N M M v O M > v N M M v v M M N > M O e | C ! ! ] % 0 ",
"0 P ] [ [ ( 3 3 Q Q R 3 3 3 3 R Q Q 3 3 Q Q R 9 Q S 3 R Q Q 3 S Q 9 3 R Q Q 3 3 Q Q R 9 Q S 3 3 3 ( ( . P 0 ",
"0 P ] [ [ ( 3 3 Q Q R 3 3 3 3 R Q Q 3 3 Q Q R 9 Q S 3 R Q Q 3 S Q 9 3 R Q Q 3 3 Q Q R 9 Q S 3 3 3 ( ( . P 0 ",
"0 P ] [ [ ( 3 3 Q Q R 3 3 3 3 R Q Q 3 3 Q Q R 9 Q S 3 R Q Q 3 S Q 9 3 R Q Q 3 3 Q Q R 9 Q S 3 3 3 ( ( . P 0 ",
"0 l . C C [ 3 3 Q Q R 3 3 3 3 R Q Q 3 3 Q Q R 9 Q S 3 R Q Q 3 S Q 9 3 R Q Q 3 3 Q Q R 9 Q S 3 3 3 ( ( 7 T 0 ",
"0 l 7 [ [ ( 3 3 Q Q R 3 3 3 3 R Q Q 3 3 Q Q R 9 Q S 3 R Q Q 3 S Q 9 3 R Q Q 3 3 Q Q R 9 Q S 3 3 3 } } . U 0 ",
"0 l ) 3 3 3 3 3 Q Q V t t t t V Q Q t t Q Q V 5 Q W t V Q Q t W Q 5 t V Q Q t t Q Q V 5 Q W m m t t t . P 0 ",
"0 P ' 3 3 3 m m Q Q X Y Y Z m > Q Q m m Q Q Y X Q W m > Q Q Y ` Q Y m > Q Q m m Q Q X W Q W * * * m m ' + 0 ",
"0 P 7 3 3 t * $ Q Q Q Q Q  .* K Q Q * * Q Q Q Q Q  .* K Q Q Q Q Q ..* K Q Q * * Q Q Q Q Q +.* $ * m m ) U 0 ",
"0 P ) m m * @.#.f Q Q Q Q $.@.%.Q Q @.@.q Q Q Q &.d @.@.*.Q Q Q =.( @.%.Q Q @.@.s Q Q Q &.d @.@.@.t t C U 0 ",
"0 P ) m m * @.#.#.#.#.#.#.#.#.#.#.#.#.#.#.% Q Q #.#.#.#.#.#.#.#.#.#.#.#.#.#.#.#.#.#.#.#.#.#.@.@.#.t t [ + 0 ",
"0 + C $ $ @.-.-.;.;.;.;.;.;.;.;.;.;.;.;.;.P Q Q ;.;.;.;.;.;.;.;.;.;.;.;.;.;.;.;.;.;.;.;.;.-.-.-.-.#.#.( + 0 ",
"0 + [ @.@.#.>.>.>.-.-.-.-.-.-.-.-.-.-.-.-.-.-.-.-.-.-.-.-.-.-.-.-.-.-.-.-.-.-.-.-.-.-.-.-.-.>.>.>.;.;.( U 0 ",
"0 U t ,.'.'.'.'.'.'.'.'.'.'.'.'.'.'.'.'.'.'.'.'.'.'.'.'.'.'.'.'.'.'.'.'.'.'.'.'.'.'.'.'.'.'.'.'.'.'.'.m ).0 ",
"0 U } -.,.,.,.,.>.,.>.>.>.>.>.>.>.>.>.>.>.>.>.>.>.>.>.>.>.>.>.>.>.>.>.>.>.>.>.>.>.>.>.>.>.>.>.,.,.,.,.t T 0 ",
"0 P E ! [ [ [ [ [ C [ [ [ [ [ [ [ [ [ [ [ [ [ [ [ [ [ [ [ [ [ [ [ [ [ [ [ [ [ [ [ [ [ [ [ [ [ [ [ C [ ] r 0 ",
"0 0 0 0 0 0 0 0 0 0 0 0 0 0 0 0 0 0 0 0 0 0 0 0 0 0 0 0 0 0 0 0 0 0 0 0 0 0 0 0 0 0 0 0 0 0 0 0 0 0 0 0 0 0 "};
