/* XPM */
static char *liquidFluidEditLightShader[] = {
/* columns rows colors chars-per-pixel */
"31 31 80 1",
"  c #00264D",
". c #0E3357",
"X c #1D4063",
"o c #2D4D6E",
"O c #3C5B79",
"+ c #5A758F",
"@ c #7990A6",
"# c #4D95FF",
"$ c #4F97FF",
"% c #5199FF",
"& c #529AFF",
"* c #539BFF",
"= c #559CFF",
"- c #589FFF",
"; c #5B9DFE",
": c #5E9FFE",
"> c #59A0FF",
", c #5AA1FF",
"< c #5BA2FF",
"1 c #5CA3FF",
"2 c #5EA5FF",
"3 c #61A8FF",
"4 c #62A8FF",
"5 c #64AAFF",
"6 c #66ACFF",
"7 c #68AEFF",
"8 c #6BB0FF",
"9 c #6DB2FF",
"0 c #6FB4FF",
"q c #73B8FF",
"w c #74B8FF",
"e c #7BBDFF",
"r c #7CBEFF",
"t c #7EBFFF",
"y c #808080",
"u c gray53",
"i c #888888",
"p c #898989",
"a c #889DB1",
"s c #97ABBC",
"d c gray66",
"f c #A9A9A9",
"g c #AAAAAA",
"h c gray67",
"j c #B2B6B7",
"k c #95ADCB",
"l c #80C0FF",
"z c #82C2FF",
"x c #86C4FF",
"c c #87C5FF",
"v c #89C6FF",
"b c #91CBFF",
"n c #93CDFF",
"m c #95CEFF",
"M c #96CEFF",
"N c #9DD3FF",
"B c #9FD4FF",
"V c #B5C6D2",
"C c #A0D5FF",
"Z c #A8DAFF",
"A c #ABDCFF",
"S c #ACDCFF",
"D c #AFDEFF",
"F c #B9E2FF",
"G c #BCE3FF",
"H c #C4D3DD",
"J c #D7D7D7",
"K c #C7E8FF",
"L c #CFECFF",
"P c #D4E0E9",
"I c #D6EFFF",
"U c #E3EEF4",
"Y c #E6EEF2",
"T c #E2F4FF",
"R c #E4F5FF",
"E c #E5F5FF",
"W c #E7F6FF",
"Q c #E9F1F5",
"! c #EAF8FF",
"~ c #F2FBFF",
/* pixels */
"JgpyyyyyyyyyyyyyyyyyyyyyyyyyphJ",
"gjY~~~~~~~~~~~~~~~~~~~~~~~~~Yjg",
"uQ~~~~~~~~~~~~~~~~~~~~~~~~~~~Qu",
"y~~~~~~~~~~~~P~~~~~~~~~~~~~~~~y",
"y~~~ V~~VO~Uo  +~@@~~OV    O~~y",
"y~~~ V~~VO~O+UH.P@@~~OV~V ~~~~y",
"y~~~ V~~VO~ U~~sU@@~~OV~V ~~~~y",
"y~~~ V~~VOVX~P@@V@    V~V ~~~~y",
"y~~~ V~~VOP UP@O@@@~~OV~V ~~~~y",
"y~~~ V~~VO~.a~~+@@@~~OV~V ~~~~y",
"y~~~ oOOVO~V Xo.V@@~~OV~V ~~~~y",
"y~~~VVVVUH~~PasP~PP~~HY~UV~~~~y",
"y~~~~~~~~~~~~~~~~~~~~~~~~~~~~~y",
"y~~~~~~~~~~~~~~~~~~~~~~~~~~~~~y",
"yIIITE!~~~~~~~~~~~~~~~~~~~~~~~y",
"yAAAAAAAAFGKLITE~~~~~~~~~~~ETEy",
"yAAAAAAAAAAAAAAAAAAAADAAAAAAAAy",
"yAAAAAAAAAAAAAAAAAAAAAAAAAAAAAy",
"yAAAAAAAAAAAAAAAAAAAAAAAAAZCmmy",
"yAAAAAAAAAAAAAAAAAAAAZNnceqqqqy",
"yCAAAAAAAAAAAAAAANncrqqqqqqqqqy",
"yqqqwttlvvvvvlttwqqqqqqqqqqqqqy",
"yqqqqqqqqqqqqqqqwqqqqqqqqqqqqqy",
"yqqqqqqqqqqqqqqqqqqqqqqqqqqqqqy",
"y0qqqqqqqqqqqqqqqqqqqqqqqqqqqqy",
"y#%,48qqqqqqqqqqqqqqqqqqqqqq04y",
"y######,460qqqqqqqqqqqqq061=##y",
"y###########$==,11111=%#######y",
"u:###########################:u",
"gk;#########################;kg",
"JguyyyyyyyyyyyyyyyyyyyyyyyyypdJ"
};
