/* XPM */
static char *liquidFluidEditDisplacementShader[] = {
/* columns rows colors chars-per-pixel */
"31 31 82 1",
"  c #00264D",
". c #0E3357",
"X c #1D4063",
"o c #2D4D6E",
"O c #3C5B79",
"+ c #5A758F",
"@ c #69839A",
"# c #7990A6",
"$ c #4D95FF",
"% c #4F97FF",
"& c #5199FF",
"* c #529AFF",
"= c #539BFF",
"- c #559CFF",
"; c #589FFF",
": c #5B9DFE",
"> c #5E9FFE",
", c #59A0FF",
"< c #5AA1FF",
"1 c #5BA2FF",
"2 c #5CA3FF",
"3 c #5EA5FF",
"4 c #61A8FF",
"5 c #62A8FF",
"6 c #64AAFF",
"7 c #66ACFF",
"8 c #68AEFF",
"9 c #6BB0FF",
"0 c #6DB2FF",
"q c #6FB4FF",
"w c #73B8FF",
"e c #74B8FF",
"r c #7BBDFF",
"t c #7CBEFF",
"y c #7EBFFF",
"u c #808080",
"i c gray53",
"p c #888888",
"a c #898989",
"s c #889DB1",
"d c #97ABBC",
"f c gray66",
"g c #A9A9A9",
"h c #AAAAAA",
"j c gray67",
"k c #B2B6B7",
"l c #95ADCB",
"z c #A6B8C7",
"x c #80C0FF",
"c c #82C2FF",
"v c #86C4FF",
"b c #87C5FF",
"n c #89C6FF",
"m c #91CBFF",
"M c #93CDFF",
"N c #95CEFF",
"B c #96CEFF",
"V c #9DD3FF",
"C c #9FD4FF",
"Z c #B5C6D2",
"A c #A0D5FF",
"S c #A8DAFF",
"D c #ABDCFF",
"F c #ACDCFF",
"G c #AFDEFF",
"H c #B9E2FF",
"J c #BCE3FF",
"K c #C4D3DD",
"L c #D7D7D7",
"P c #C7E8FF",
"I c #CFECFF",
"U c #D4E0E9",
"Y c #D6EFFF",
"T c #E3EEF4",
"R c #E6EEF2",
"E c #E2F4FF",
"W c #E4F5FF",
"Q c #E5F5FF",
"! c #E7F6FF",
"~ c #E9F1F5",
"^ c #EAF8FF",
"/ c #F2FBFF",
/* pixels */
"LhauuuuuuuuuuuuuuuuuuuuuuuuuajL",
"hkR/////////////////////////Rkh",
"i~///////////////////////////~i",
"u///////////////TT////////////u",
"u/////#   @/ZO/#. +/#   s/////u",
"u/////#O/z.zZOT KU.Z##/Z /////u",
"u/////#O//#@ZOT dTKT##/R T////u",
"u/////#O//sOZO/d. @/#XOXO/////u",
"u/////#O//#@ZOUK/zod#O#z//////u",
"u/////#O//osZOKo//+###////////u",
"u/////#.O.o/ZO/oXO.U##////////u",
"u/////UZZZ//TK//zsU/UU////////u",
"u/////////////////////////////u",
"u/////////////////////////////u",
"uYYYEQ^///////////////////////u",
"uDDDDDDDDHJPIYEQ///////////QEQu",
"uDDDDDDDDDDDDDDDDDDDDGDDDDDDDDu",
"uDDDDDDDDDDDDDDDDDDDDDDDDDDDDDu",
"uDDDDDDDDDDDDDDDDDDDDDDDDDSANNu",
"uDDDDDDDDDDDDDDDDDDDDSVMbrwwwwu",
"uADDDDDDDDDDDDDDDVMbtwwwwwwwwwu",
"uwwweyyxnnnnnxyyewwwwwwwwwwwwwu",
"uwwwwwwwwwwwwwwwewwwwwwwwwwwwwu",
"uwwwwwwwwwwwwwwwwwwwwwwwwwwwwwu",
"uqwwwwwwwwwwwwwwwwwwwwwwwwwwwwu",
"u$&<59wwwwwwwwwwwwwwwwwwwwwwq5u",
"u$$$$$$<57qwwwwwwwwwwwwwq72-$$u",
"u$$$$$$$$$$$%--<22222-&$$$$$$$u",
"i>$$$$$$$$$$$$$$$$$$$$$$$$$$$>i",
"hl:$$$$$$$$$$$$$$$$$$$$$$$$$:lh",
"LhiuuuuuuuuuuuuuuuuuuuuuuuuuafL"
};
