/* XPM */
static char * liquidMenuButton_xpm[] = {
"19 18 50 1",
" 	c #C3C3C3",
".	c #818181",
"+	c #707070",
"@	c #C0C0C0",
"#	c #808080",
"$	c #C6C6C6",
"%	c #FFFFFF",
"&	c #F5F5F5",
"*	c #F4F4F4",
"=	c #F2F2F2",
"-	c #F0F0F0",
";	c #EEEEEE",
">	c #ABABAB",
",	c #868686",
"'	c #ACACAC",
")	c #ECECEC",
"!	c #E0E0E0",
"~	c #7F7F7F",
"{	c #797979",
"]	c #EAEAEA",
"^	c #AFAFAF",
"/	c #6D6D6D",
"(	c #E8E8E8",
"_	c #E5E5E5",
":	c #747474",
"<	c #606060",
"[	c #D0D0D0",
"}	c #939393",
"|	c #000000",
"1	c #CFCFCF",
"2	c #333333",
"3	c #CACACB",
"4	c #A4A4A5",
"5	c #020202",
"6	c #C5C5C6",
"7	c #515152",
"8	c #BEBEBF",
"9	c #B1B1B2",
"0	c #1B1B1B",
"a	c #BBBBBD",
"b	c #AEAEB0",
"c	c #C2C2C3",
"d	c #C3C3C4",
"e	c #7B7B7B",
"f	c #A1A1A1",
"g	c #C6C6C7",
"h	c #C9C9CA",
"i	c #A2A2A2",
"j	c #7A7A7A",
"k	c #BFBFBF",
" .+++++++++++++++.@",
"#$%%%%%%%%%%%%%%%$#",
"+&***************&+",
"+=================+",
"+-----------------+",
"+;;;>,,,,,,,,,';;;+",
"+)))!~{{{{{{{~!)))+",
"+]]]]^///////^]]]]+",
"+((((_:<<<<<:_((((+",
"+[[[[[}|||||}[[[[[+",
"+1111112|||2111111+",
"+33333345|54333333+",
"+66666667|76666666+",
"+88888889098888888+",
"+aaaaaaaabaaaaaaaa+",
"+cdddddddddddddddc+",
"efghhhhhhhhhhhhhgie",
"@j+++++++++++++++jk"};
