/* XPM */
static char *liquidRender[] = {
/* columns rows colors chars-per-pixel */
"31 31 83 1",
"  c #00264D",
". c #0F3357",
"X c #1F4061",
"o c #2F4E6B",
"O c #3F5B76",
"+ c #5F768A",
"@ c #6F8495",
"# c #7F919F",
"$ c #FF944D",
"% c #FF964F",
"& c #FF9851",
"* c #FF9A52",
"= c #FF9B53",
"- c #FF9C55",
"; c #FE9D5B",
": c #FE9E5E",
"> c #FFA058",
", c #FFA159",
"< c #FFA25A",
"1 c #FFA35B",
"2 c #FFA55C",
"3 c #FFA75E",
"4 c #FFAA61",
"5 c #FFAB62",
"6 c #FFAE64",
"7 c #FFAF66",
"8 c #FFB268",
"9 c #FFB56B",
"0 c #FFB76D",
"q c #FFB96F",
"w c #FFBA6F",
"e c #FFBE73",
"r c #FFBE74",
"t c #FFC37B",
"y c #FFC47C",
"u c #FFC57E",
"i c #808080",
"p c gray53",
"a c #888888",
"s c #898989",
"d c #8F9FAA",
"f c #9FACB4",
"g c gray66",
"h c #A9A9A9",
"j c #AAAAAA",
"k c gray67",
"l c #AFBABE",
"z c #B7B6B2",
"x c #BFC7C9",
"c c #CBAC95",
"v c #FFC680",
"b c #FFC882",
"n c #FFCB86",
"m c #FFCB87",
"M c #FFCD89",
"N c #FFD291",
"B c #FFD393",
"V c #FFD495",
"C c #FFD596",
"Z c #FFD99D",
"A c #FFDB9F",
"S c #FFDCA0",
"D c #FFE1A8",
"F c #FFE3AB",
"G c #FFE3AC",
"H c #FFE5AF",
"J c #FFE8B9",
"K c #FFE9BC",
"L c #CFD5D3",
"P c #D7D7D7",
"I c #DFE2DD",
"U c #FFEDC7",
"Y c #FFF0CF",
"T c #FFF3D6",
"R c #EFF0E8",
"E c #F2F0E6",
"W c #F5F3E9",
"Q c #FFF7E2",
"! c #FFF8E4",
"~ c #FFF8E5",
"^ c #FFF9E7",
"/ c #FFFAEA",
"( c #FFFDF2",
/* pixels */
"PjsiiiiiiiiiiiiiiiiiiiiiiiiiskP",
"jzE(((((((((((((((((((((((((Ezk",
"pW(((((((((((((((((((((((((((Wp",
"i(((((((((((((((((((((((((((((i",
"i(((O   @(O+((OxO  .l(O   @(((i",
"i(((Ox(L IO I(OxOxRd.ROx(L L((i",
"i(((Ox(R.IOXO(OxOx((XxOx(R.I((i",
"i(((Ooo @(Ol.xOxOx((OfOoo @(((i",
"i(((Odl x(Ox#OOxOx((OxOdl.x(((i",
"i(((Ox(#X(OxRX xOx(L ROx(#X(((i",
"i(((Ox(R.fOx(f xOoO #(Ox(R.f((i",
"i(((LR((LLLR((xRLxxL((LR((IL((i",
"i(((((((((((((((((((((((((((((i",
"i(((((((((((((((((((((((((((((i",
"iTTTQ~/(((((((((((((((((((((((i",
"iFFFFFFFFJKUYTQ~(((((((((((~TTi",
"iFFFFFFFFFFFFFFFFFFFFFFFFFFFFFi",
"iFFFFFFFFFFFFFFFFFFFFFFFFFFFFFi",
"iFFFFFFFFFFFFFFFFFFFFFFFFFDCCup",
"iFFFFFFFFFFFFFFFFFFFFFAButtetti",
"iSFFFFFFFFFFFFFFFANnyeeewtwwt9i",
"ieeeruuvMMMMMvuyreeeeeeewtwttti",
"ieeeeeeeeeeeeeeeeeeeeeeewwtw9ti",
"ieeeeeeeeeeeeeeeeeeeeeeetwwwt9i",
"iweeeeeeeeeeeeeeeeeewtwwtt9tt9i",
"i$&<59eeeeeeeeeeeeeewtwtt99tt6i",
"i$$$$$$<58weteereeeet0w0962*$$i",
"i$$$$$$$$$$$$---22222=*$$$$$$$i",
"p:$$$$$$$$$$$$$$$$$$$$$$$$$$$,p",
"jc;$$$$$$$$$$$$$$$$$$$$$$$$$>cg",
"Pjpiiiiiiiiiiiii@iiiiiiiiiiipgP"
};
