/* XPM */
static char *liquidInfo0[] = {
/* columns rows colors chars-per-pixel */
"12 12 10 1",
"  c gray68",
". c #B1B1B1",
"X c gray71",
"o c gray72",
"O c #B9B9B9",
"+ c #CECECE",
"@ c gray81",
"# c #D0D0D0",
"$ c #D2D2D2",
"% c #E1E1E1",
/* pixels */
"@O........O#",
"X#%%%%%%%%#X",
".%%%%%%%%%%.",
".%%%%  %%%%.",
".%%%%%%%%%%.",
".%%%O  %%%%.",
".%%%%  %%%%.",
".%%%%  %%%%.",
".%%%    %%%.",
".%%%%%%%%%%.",
"X#%%%%%%%%#X",
"@X........X@"
};
