/* XPM */
static char *liquidFluidEditSurfaceShader[] = {
/* columns rows colors chars-per-pixel */
"31 31 83 1",
"  c #00264D",
". c #0E3357",
"X c #1D4063",
"o c #2D4D6E",
"O c #3C5B79",
"+ c #4B6884",
"@ c #5A758F",
"# c #69839A",
"$ c #7990A6",
"% c #4D95FF",
"& c #4F97FF",
"* c #5199FF",
"= c #529AFF",
"- c #539BFF",
"; c #559CFF",
": c #589FFF",
"> c #5B9DFE",
", c #5E9FFE",
"< c #59A0FF",
"1 c #5AA1FF",
"2 c #5BA2FF",
"3 c #5CA3FF",
"4 c #5EA5FF",
"5 c #61A8FF",
"6 c #62A8FF",
"7 c #64AAFF",
"8 c #66ACFF",
"9 c #68AEFF",
"0 c #6BB0FF",
"q c #6DB2FF",
"w c #6FB4FF",
"e c #73B8FF",
"r c #74B8FF",
"t c #7BBDFF",
"y c #7CBEFF",
"u c #7EBFFF",
"i c #808080",
"p c gray53",
"a c #888888",
"s c #898989",
"d c #889DB1",
"f c #97ABBC",
"g c gray66",
"h c #A9A9A9",
"j c #AAAAAA",
"k c gray67",
"l c #B2B6B7",
"z c #95ADCB",
"x c #A6B8C7",
"c c #80C0FF",
"v c #82C2FF",
"b c #86C4FF",
"n c #87C5FF",
"m c #89C6FF",
"M c #91CBFF",
"N c #93CDFF",
"B c #95CEFF",
"V c #96CEFF",
"C c #9DD3FF",
"Z c #9FD4FF",
"A c #B5C6D2",
"S c #A0D5FF",
"D c #A8DAFF",
"F c #ABDCFF",
"G c #ACDCFF",
"H c #AFDEFF",
"J c #B9E2FF",
"K c #BCE3FF",
"L c #C4D3DD",
"P c #D7D7D7",
"I c #C7E8FF",
"U c #CFECFF",
"Y c #D4E0E9",
"T c #D6EFFF",
"R c #E3EEF4",
"E c #E6EEF2",
"W c #E2F4FF",
"Q c #E4F5FF",
"! c #E5F5FF",
"~ c #E7F6FF",
"^ c #E9F1F5",
"/ c #EAF8FF",
"( c #F2FBFF",
/* pixels */
"PjsiiiiiiiiiiiiiiiiiiiiiiiiiskP",
"jlE(((((((((((((((((((((((((Elj",
"p^(((((((((((((((((((((((((((^p",
"i((((((Y((((((((((((((((((((((i",
"i((((d. oR$$((OA$   OE$   O(((i",
"i((((XxRof$$((OA$$(YXf$$((((((i",
"i((((.#RYY$$((OA$$((of$$((((((i",
"i((((xX +R$$((OA$XO OR$   A(((i",
"i(((RL(xo#$$((OA$@xXf($@AAR(((i",
"i(((R.R($@do((.A$$(x.Y$$((((((i",
"i((((+XO xY.oXo($$((O@$$((((((i",
"i(((((A$L(((ffR(YY((YAYY((((((i",
"i(((((((((((((((((((((((((((((i",
"i(((((((((((((((((((((((((((((i",
"iTTTW!/(((((((((((((((((((((((i",
"iFFFFFFFFJKIUTW!(((((((((((!W!i",
"iFFFFFFFFFFFFFFFFFFFFHFFFFFFFFi",
"iFFFFFFFFFFFFFFFFFFFFFFFFFFFFFi",
"iFFFFFFFFFFFFFFFFFFFFFFFFFDSBBi",
"iFFFFFFFFFFFFFFFFFFFFDCNnteeeei",
"iSFFFFFFFFFFFFFFFCNnyeeeeeeeeei",
"ieeeruucmmmmmcuureeeeeeeeeeeeei",
"ieeeeeeeeeeeeeeereeeeeeeeeeeeei",
"ieeeeeeeeeeeeeeeeeeeeeeeeeeeeei",
"iweeeeeeeeeeeeeeeeeeeeeeeeeeeei",
"i%*160eeeeeeeeeeeeeeeeeeeeeew6i",
"i%%%%%%168weeeeeeeeeeeeew83;%%i",
"i%%%%%%%%%%%&;;133333;*%%%%%%%i",
"p,%%%%%%%%%%%%%%%%%%%%%%%%%%%,p",
"jz>%%%%%%%%%%%%%%%%%%%%%%%%%>zj",
"PjpiiiiiiiiiiiiiiiiiiiiiiiiisgP"
};
