/* XPM */
static char * render_liquidDisplacement_xpm[] = {
"32 32 547 2",
"  	c None",
". 	c #999999",
"+ 	c #C1C1C1",
"@ 	c #B1B6BA",
"# 	c #5D7A99",
"$ 	c #224C77",
"% 	c #214A73",
"& 	c #214971",
"* 	c #214A72",
"= 	c #3B5D7F",
"- 	c #57728D",
"; 	c #76899B",
"> 	c #969FA9",
", 	c #AAAFB5",
"' 	c #C0C0C0",
") 	c #ABB1B6",
"! 	c #879FB9",
"~ 	c #7D97B3",
"{ 	c #577492",
"] 	c #264D75",
"^ 	c #224C76",
"/ 	c #214A74",
"( 	c #214972",
"_ 	c #204871",
": 	c #285787",
"< 	c #2C5C8E",
"[ 	c #214973",
"} 	c #244F7B",
"| 	c #2E557E",
"1 	c #476686",
"2 	c #6B829A",
"3 	c #8C99A7",
"4 	c #B8BCC0",
"5 	c #ABB6C1",
"6 	c #3B70A6",
"7 	c #3E7CBD",
"8 	c #275686",
"9 	c #255280",
"0 	c #234E7B",
"a 	c #204770",
"b 	c #36689B",
"c 	c #3E70A4",
"d 	c #32679D",
"e 	c #6494C6",
"f 	c #487DB4",
"g 	c #2E659E",
"h 	c #2A5D92",
"i 	c #20476E",
"j 	c #234D78",
"k 	c #295583",
"l 	c #36608C",
"m 	c #5077A0",
"n 	c #748FAA",
"o 	c #B0B6BD",
"p 	c #A1AEBC",
"q 	c #3F6B98",
"r 	c #2E66A0",
"s 	c #2D649C",
"t 	c #295A8D",
"u 	c #28598C",
"v 	c #25517F",
"w 	c #306AA6",
"x 	c #3A70A7",
"y 	c #29598B",
"z 	c #77A0CA",
"A 	c #D9E6F4",
"B 	c #A4C4E5",
"C 	c #72A2D4",
"D 	c #3E76AF",
"E 	c #356596",
"F 	c #2E5F91",
"G 	c #1E446A",
"H 	c #1F456C",
"I 	c #24517F",
"J 	c #28588A",
"K 	c #54779B",
"L 	c #BFC0C1",
"M 	c #7D94AA",
"N 	c #2C5F95",
"O 	c #295A8E",
"P 	c #295B8F",
"Q 	c #255281",
"R 	c #24507F",
"S 	c #265484",
"T 	c #4E89C6",
"U 	c #8DB5DE",
"V 	c #9ABADA",
"W 	c #658FBA",
"X 	c #6698CA",
"Y 	c #78A6D6",
"Z 	c #568CC3",
"` 	c #94BAE0",
" .	c #4B80B6",
"..	c #24507D",
"+.	c #1C3F62",
"@.	c #1E4469",
"#.	c #255180",
"$.	c #2C6097",
"%.	c #275687",
"&.	c #54789D",
"*.	c #A4B2C0",
"=.	c #416F9F",
"-.	c #28598B",
";.	c #275688",
">.	c #24507E",
",.	c #28588B",
"'.	c #295C90",
").	c #356EA9",
"!.	c #417AB5",
"~.	c #4080C2",
"{.	c #699ED4",
"].	c #4885C5",
"^.	c #4481C0",
"/.	c #4B83BE",
"(.	c #4D86C2",
"_.	c #31669E",
":.	c #34618F",
"<.	c #24507C",
"[.	c #4C6B8B",
"}.	c #719AC5",
"|.	c #6EA0D4",
"1.	c #6291C1",
"2.	c #4878AA",
"3.	c #316193",
"4.	c #234D79",
"5.	c #204870",
"6.	c #224B75",
"7.	c #2C6299",
"8.	c #2F67A2",
"9.	c #3A76B5",
"0.	c #4D8ACA",
"a.	c #457FBB",
"b.	c #417AB6",
"c.	c #528CC7",
"d.	c #ABC9E7",
"e.	c #91B4D8",
"f.	c #21476E",
"g.	c #2F68A3",
"h.	c #3B5F84",
"i.	c #6B98C6",
"j.	c #5591CE",
"k.	c #4F8DCC",
"l.	c #79A8D9",
"m.	c #7DABDA",
"n.	c #77A7D8",
"o.	c #77A5D3",
"p.	c #5384B6",
"q.	c #3B6DA1",
"r.	c #2A5C90",
"s.	c #24517E",
"t.	c #2A5D91",
"u.	c #265483",
"v.	c #336EAB",
"w.	c #4F87C1",
"x.	c #5A91C9",
"y.	c #C2D8ED",
"z.	c #D1E1F2",
"A.	c #47709A",
"B.	c #28598A",
"C.	c #4183C6",
"D.	c #376696",
"E.	c #7BA0C5",
"F.	c #5C95D0",
"G.	c #4B8ACB",
"H.	c #639AD2",
"I.	c #659BD3",
"J.	c #6299D2",
"K.	c #72A4D6",
"L.	c #79A8D8",
"M.	c #5E96D0",
"N.	c #2D639B",
"O.	c #85AED8",
"P.	c #9FC1E3",
"Q.	c #4C7BAC",
"R.	c #2C5C8C",
"S.	c #3879BC",
"T.	c #316CA9",
"U.	c #275788",
"V.	c #3168A1",
"W.	c #6A9ED4",
"X.	c #99BDE2",
"Y.	c #ACCAE7",
"Z.	c #406D9C",
"`.	c #2B5F95",
" +	c #3B77B5",
".+	c #587CA1",
"++	c #799EC3",
"@+	c #5A94D0",
"#+	c #5E96D1",
"$+	c #5792CF",
"%+	c #7AA8D9",
"&+	c #6EA0D5",
"*+	c #508DCD",
"=+	c #5490CE",
"-+	c #467EB8",
";+	c #3B72AA",
">+	c #DBE8F5",
",+	c #F3F7FC",
"'+	c #E6EFF8",
")+	c #BBD3EB",
"!+	c #83ACD5",
"~+	c #467AAF",
"{+	c #2E66A1",
"]+	c #2B6096",
"^+	c #285A8D",
"/+	c #326CA9",
"(+	c #4482C3",
"_+	c #6DA0D5",
":+	c #578BC1",
"<+	c #2C5D8F",
"[+	c #4175AB",
"}+	c #809CB8",
"|+	c #749AC1",
"1+	c #7EABDA",
"2+	c #6198D2",
"3+	c #538FCD",
"4+	c #6198D1",
"5+	c #508CCA",
"6+	c #8CB5DE",
"7+	c #5A94CF",
"8+	c #4284C8",
"9+	c #2D6096",
"0+	c #487DB5",
"a+	c #B2CDE9",
"b+	c #C0D6ED",
"c+	c #B5D0EA",
"d+	c #BED5EC",
"e+	c #AECBE8",
"f+	c #7EA6CE",
"g+	c #5381B0",
"h+	c #5482B1",
"i+	c #4786C8",
"j+	c #4787C9",
"k+	c #95BADF",
"l+	c #5B8CBF",
"m+	c #3571AE",
"n+	c #BBC0C6",
"o+	c #849EB9",
"p+	c #689DD4",
"q+	c #5993CF",
"r+	c #518ECD",
"s+	c #4585C7",
"t+	c #6C9FD5",
"u+	c #3D80C4",
"v+	c #3D7BBB",
"w+	c #508ECD",
"x+	c #DFEAF6",
"y+	c #BFD6EC",
"z+	c #82AEDB",
"A+	c #74A5D7",
"B+	c #93B9E0",
"C+	c #9CBFE2",
"D+	c #B9D2EB",
"E+	c #4384C7",
"F+	c #6CA0D5",
"G+	c #8BB4DE",
"H+	c #4C82B9",
"I+	c #4B82BA",
"J+	c #3C6794",
"K+	c #9DAAB7",
"L+	c #649AD2",
"M+	c #528FCD",
"N+	c #5D96D0",
"O+	c #5390CE",
"P+	c #4687CA",
"Q+	c #6B9ED4",
"R+	c #3F81C5",
"S+	c #356FAB",
"T+	c #3570AE",
"U+	c #6A93BD",
"V+	c #B2CEE9",
"W+	c #91B8DF",
"X+	c #86B0DC",
"Y+	c #84AFDC",
"Z+	c #81ADDB",
"`+	c #75A1CD",
" @	c #20466E",
".@	c #4887C8",
"+@	c #528ECC",
"@@	c #2E5F92",
"#@	c #2C6198",
"$@	c #6C9ED1",
"%@	c #335D88",
"&@	c #C1C1C2",
"*@	c #B9BDC1",
"=@	c #4682BF",
"-@	c #5590CE",
";@	c #5691CE",
">@	c #6097D1",
",@	c #76A6D7",
"'@	c #71A3D6",
")@	c #4A739D",
"!@	c #6092C5",
"~@	c #98BCE1",
"{@	c #90B7DF",
"]@	c #8EB6DE",
"^@	c #5380AD",
"/@	c #234E7A",
"(@	c #2A5E93",
"_@	c #3F7FC2",
":@	c #3068A2",
"<@	c #1C3E61",
"[@	c #366DA7",
"}@	c #3E6FA1",
"|@	c #255381",
"1@	c #B4BEC7",
"2@	c #4D88C3",
"3@	c #4D8BCB",
"4@	c #91B8E0",
"5@	c #316CA8",
"6@	c #548FCD",
"7@	c #89B3DD",
"8@	c #ACC9E7",
"9@	c #72A3D6",
"0@	c #ADCAE7",
"a@	c #78A2CC",
"b@	c #9DC0E3",
"c@	c #5C86B1",
"d@	c #3270AE",
"e@	c #2F669F",
"f@	c #1F466D",
"g@	c #3069A3",
"h@	c #244E78",
"i@	c #B1B8BE",
"j@	c #6191C2",
"k@	c #3F82C7",
"l@	c #3F81C4",
"m@	c #6097D0",
"n@	c #4784C3",
"o@	c #A8C7E6",
"p@	c #D8E6F4",
"q@	c #BFD6ED",
"r@	c #6098D1",
"s@	c #7BA9D9",
"t@	c #83AFDB",
"u@	c #80ACDA",
"v@	c #8AB3DD",
"w@	c #8CB4DE",
"x@	c #A5C5E5",
"y@	c #5982AD",
"z@	c #3E81C6",
"A@	c #3574B4",
"B@	c #1F446B",
"C@	c #386CA2",
"D@	c #BEBEBE",
"E@	c #5D8CBC",
"F@	c #387BC0",
"G@	c #3371B0",
"H@	c #558DC8",
"I@	c #A7C7E6",
"J@	c #4A7199",
"K@	c #417BB7",
"L@	c #AFCCE8",
"M@	c #B1CDE9",
"N@	c #81AEDB",
"O@	c #689DD3",
"P@	c #7AA9D9",
"Q@	c #89B2DD",
"R@	c #4F7DAE",
"S@	c #3C77B3",
"T@	c #5892CE",
"U@	c #346BA4",
"V@	c #6484A3",
"W@	c #7799BC",
"X@	c #3575B7",
"Y@	c #3371B1",
"Z@	c #336BA4",
"`@	c #A1C2E4",
" #	c #A7C4E0",
".#	c #355E87",
"+#	c #4A85C2",
"@#	c #7CA6D1",
"##	c #98BDE1",
"$#	c #679CD3",
"%#	c #5892CF",
"&#	c #9ABEE2",
"*#	c #5B8BBC",
"=#	c #3E7CBC",
"-#	c #346AA1",
";#	c #76A4D5",
">#	c #306398",
",#	c #1E4367",
"'#	c #20486F",
")#	c #1F446A",
"!#	c #8E9FB1",
"~#	c #839EBB",
"{#	c #3C7DC0",
"]#	c #3372B3",
"^#	c #265382",
"/#	c #5E91C6",
"(#	c #AAC8E6",
"_#	c #6D95BD",
":#	c #4076AE",
"<#	c #6895C3",
"[#	c #5B8EC2",
"}#	c #7AA8D8",
"|#	c #7DAADA",
"1#	c #7FACDA",
"2#	c #6CA0D4",
"3#	c #76A6D8",
"4#	c #5685B5",
"5#	c #5F97D1",
"6#	c #4C86C2",
"7#	c #4D7CAC",
"8#	c #305F8E",
"9#	c #1E4266",
"0#	c #1E4267",
"a#	c #9BABBB",
"b#	c #8AA2BC",
"c#	c #528ECD",
"d#	c #4183C8",
"e#	c #326BA5",
"f#	c #2E5D8E",
"g#	c #80A5CB",
"h#	c #F0F5FB",
"i#	c #D3E2F2",
"j#	c #7FA9D4",
"k#	c #477FB8",
"l#	c #669CD3",
"m#	c #6B9FD5",
"n#	c #8EB6DF",
"o#	c #4A7DB2",
"p#	c #5B94D0",
"q#	c #3D78B6",
"r#	c #7DA5CF",
"s#	c #386696",
"t#	c #1D4063",
"u#	c #1F466C",
"v#	c #9EACB9",
"w#	c #819FBE",
"x#	c #6199D2",
"y#	c #4C8BCB",
"z#	c #4182C6",
"A#	c #3A6A9C",
"B#	c #9ABCE0",
"C#	c #96BAE0",
"D#	c #6FA1D5",
"E#	c #5A91CB",
"F#	c #659BD2",
"G#	c #78A7D8",
"H#	c #5A93CF",
"I#	c #88B2DD",
"J#	c #487FB7",
"K#	c #4080C3",
"L#	c #5C92C9",
"M#	c #4476A9",
"N#	c #1F456B",
"O#	c #3A5D80",
"P#	c #BEBFC0",
"Q#	c #6D8FB1",
"R#	c #6399D2",
"S#	c #4C8BCC",
"T#	c #3069A4",
"U#	c #224D78",
"V#	c #8CB3DC",
"W#	c #C9DCF0",
"X#	c #4585C6",
"Y#	c #6EA1D5",
"Z#	c #70A2D6",
"`#	c #4379B2",
" $	c #3877B8",
".$	c #3B7ABB",
"+$	c #2A5A8C",
"@$	c #1D4165",
"#$	c #264B70",
"$$	c #A8B0B9",
"%$	c #628BB6",
"&$	c #73A4D7",
"*$	c #4C89C8",
"=$	c #2A5B8E",
"-$	c #6C9FD3",
";$	c #9CBEE2",
">$	c #548FCB",
",$	c #4082C6",
"'$	c #35689D",
")$	c #326AA3",
"!$	c #234B73",
"~$	c #9CA9B6",
"{$	c #5382B1",
"]$	c #83AEDB",
"^$	c #4B8ACA",
"/$	c #306AA5",
"($	c #3B71AA",
"_$	c #6DA0D4",
":$	c #6FA1D6",
"<$	c #699DD4",
"[$	c #5792CE",
"}$	c #3874B3",
"|$	c #8495A7",
"1$	c #89A1BA",
"2$	c #85B0DC",
"3$	c #4683C3",
"4$	c #7CAAD9",
"5$	c #3778BC",
"6$	c #3B7BBD",
"7$	c #3C75B0",
"8$	c #4A88C7",
"9$	c #6B9FD4",
"0$	c #74A4D7",
"a$	c #2D649D",
"b$	c #63798F",
"c$	c #9AA8B7",
"d$	c #869EB6",
"e$	c #7398BE",
"f$	c #6B97C5",
"g$	c #6296CC",
"h$	c #4485C8",
"i$	c #4C8ACA",
"j$	c #3972AC",
"k$	c #6390BF",
"l$	c #83AFDC",
"m$	c #4E8CCC",
"n$	c #5D96D1",
"o$	c #3069A5",
"p$	c #3C5E81",
"q$	c #BCBEC0",
"r$	c #A4B4C3",
"s$	c #6A90B7",
"t$	c #407CB9",
"u$	c #518DCA",
"v$	c #2A5C91",
"w$	c #5289C1",
"x$	c #3C77B5",
"y$	c #20466D",
"z$	c #A2B0BF",
"A$	c #B6BCC1",
"B$	c #829DB9",
"C$	c #5689BD",
"D$	c #3F79B5",
"E$	c #4785C6",
"F$	c #3E75AE",
"G$	c #5C93CC",
"H$	c #5B7590",
"I$	c #ADB7C1",
"J$	c #799DC2",
"K$	c #518BC7",
"L$	c #4F8CCB",
"M$	c #5E97D1",
"N$	c #5289C2",
"O$	c #B8BBBE",
"P$	c #C0C1C1",
"Q$	c #9BAEC2",
"R$	c #628CB7",
"S$	c #4684C4",
"T$	c #A2C3E4",
"U$	c #538DCA",
"V$	c #517DAB",
". . . . . . . . . . . . . . . . . . . . . . . . . . . . . . . . ",
". + + + + + + + + + @ # $ % & * = - ; > , ' + + + + + + + + + . ",
". + + + + + ) ! ~ { ] ^ ^ / ( % _ : < [ } | 1 2 3 4 + + + + + . ",
". + + + + 5 6 7 8 9 0 a b c d e f g h / i ( ^ j $ % k l m n o . ",
". + + + p q r s t u v w x y z A B C D & E F G H i a $ v I J K . ",
". + L M N O P J Q R Q S h T U V W X Y Z `  ...+.@.( ( #.$.%.&.. ",
". *.=.-.;.u S Q v >.#.S J ,.u '.).!.~.{.].^./.(._.:.^ 0 <.h [.. ",
". }.|.1.2.3.I 4.4.j ( H % 5.6.Q S u 7.8.9.0.a.b.c.d.e.f.>.g.h.. ",
". i.j.k.l.m.n.o.p.q.r.Q s.s.i S t.u.5.i u.t v.w.x.y.z.A.B.C.D.. ",
". E.F.G.H.I.J.H.K.L.M.N.O.P.Q.R.%.8.S.T.u r.U.V.W.X.Y.Z.`. +.+. ",
". ++W.@+#+$+%+&+*+=+-+;+>+,+'+)+!+~+{+]+%.Q ^+/+(+_+:+<+N.[+}+. ",
". |+1+2+3+4+5+6+7+8+9+0+a+a+b+c+Y.d+e+f+g+h+h $ i+j+k+l+m+S n+. ",
". o+p+q+r+j.s+J.t+u+'.v+w+n.x+y+z+A+B+U C+D+/ u E+F+G+H+I+J++ . ",
". K+L+M+N+O+$+P+Q+R+S+T+H.U+>+V+W+X+Y+Z+F+`+ @r..@+@@@#@$@%@&@. ",
". *@=@-@-@q+p+R+;@>@,@v+'@)@!@L.n.~@{@]@Z+^@/@(@_@:@<@[@}@|@1@. ",
". + 2@3@q+q+4@5@6@7@8@9@F.0@a@7@%+G+U ]@b@c@/@]+d@e@f@g@h@t.i@. ",
". + j@k@l@m@e+<+n@o@p@q@r@I.s@t@u@v@w@L.x@y@8 g z@A@( ..B@C@D@. ",
". + E@F@G@H@I@J@K@Y+G+L@M@N@#+=+L+O@w@P@Q@R@P S@T@U@5.6.H V@+ . ",
". + W@X@Y@Z@`@ #.#U@+#@#x@##9@$#2+%#F.n.&#*#=#-#;#>#,#'#)#!#+ . ",
". + ~#{#]#^#/#(#A _#:#<#[#H.p+}#s@|#1#2#3#4#5#6#7#8#9#f@0#a#+ . ",
". + b#c#d#e#f#g#h#i#j#k#]@Y+$#W.l#m#1+n#z+o#p#q#r#s#t#u#,#v#+ . ",
". + w#x#y#z#/@A#B#C#D#E#M+&+F#G#B+L+;@H#I#J#K#L#M#+.f@N#O#P#+ . ",
". + Q#9@R#S#T#U#w V#W#r@O@1#X#Y#G#Z#J.H.~@`# $.$+$@$5.#$$$+ + . ",
". + %$t@Z+&$*$#@=$-$;$P@W.J.>$6@2+r@J.,$A+'$#@)$ @N#!$~$+ + + . ",
". + {$U X+]$Z#^$/$U.($_$$#q+%#_+:$&$<$7+[$t h }$@$u#|$+ + + + . ",
". + 1$2$3$1#4$p#8+5$6$7$B B+8$w+p#9@9${.0$a$#@w 9#b$+ + + + + . ",
". + L c$d$e$f$g$h$5$i$j$k$L@l$j.m$;@n$N+L.o$t -.p$q$+ + + + + . ",
". + + + + + + + r$s$t$u$v$w$Z+2+c#;@4+I.I.h x$y$z$+ + + + + + . ",
". + + + + + + + + + A$B$C$D$E$F.=+=+-@L.m.F$G$H$+ + + + + + + . ",
". + + + + + + + + + + + + I$J$K$L$3+3+G#L@M$N$O$+ + + + + + + . ",
". + + + + + + + + + + + + + + P$Q$R$S$W.T$U$V$+ + + + + + + + . ",
". . . . . . . . . . . . . . . . . . . . . . . . . . . . . . . . "};
