/* XPM */
static char * render_liquidSurface_xpm[] = {
"32 32 195 2",
"  	c None",
". 	c #999999",
"+ 	c #C1C1C1",
"@ 	c #BABEC3",
"# 	c #87B1DA",
"$ 	c #5AA6EE",
"% 	c #58A6F0",
"& 	c #57A6F1",
"* 	c #5AA7F0",
"= 	c #6CAAE4",
"- 	c #7EAEDC",
"; 	c #94B4D4",
"> 	c #ADBCCC",
", 	c #C0C1C2",
"' 	c #BEBFC1",
") 	c #92B4D4",
"! 	c #5EA7EC",
"~ 	c #59A6F0",
"{ 	c #56A5F0",
"] 	c #68A6E2",
"^ 	c #7DAEDC",
"/ 	c #92B5D6",
"( 	c #A7B9CA",
"_ 	c #BEC0C2",
": 	c #9DB7CF",
"< 	c #63A8EA",
"[ 	c #6AAAE7",
"} 	c #7EB0E0",
"| 	c #93B5D5",
"1 	c #A9BBCD",
"2 	c #BEC0C1",
"3 	c #A9BBCC",
"4 	c #6DAAE4",
"5 	c #4888C5",
"6 	c #6A7C8D",
"7 	c #B3BDC7",
"8 	c #78AEE2",
"9 	c #427CB3",
"0 	c #1E3851",
"a 	c #6F7B87",
"b 	c #BAC0C5",
"c 	c #85B2DC",
"d 	c #58A5EF",
"e 	c #3C70A2",
"f 	c #1D354E",
"g 	c #1C344B",
"h 	c #818B94",
"i 	c #7390AA",
"j 	c #538CB7",
"k 	c #62A6DA",
"l 	c #6EB9F3",
"m 	c #67B4F4",
"n 	c #57A3EB",
"o 	c #356491",
"p 	c #1C344C",
"q 	c #90979E",
"r 	c #768A9C",
"s 	c #2B5074",
"t 	c #2A4F73",
"u 	c #2C547A",
"v 	c #406F99",
"w 	c #5B95BE",
"x 	c #66AADC",
"y 	c #70BBF5",
"z 	c #65B3F4",
"A 	c #58A5F0",
"B 	c #55A0E6",
"C 	c #2F577E",
"D 	c #1C334B",
"E 	c #1A324A",
"F 	c #A0A5A9",
"G 	c #8292A1",
"H 	c #2A5074",
"I 	c #2B5073",
"J 	c #2D567D",
"K 	c #43749C",
"L 	c #5D98C1",
"M 	c #6BB1E2",
"N 	c #71BDF4",
"O 	c #63B0F3",
"P 	c #5299DE",
"Q 	c #294E70",
"R 	c #173048",
"S 	c #B1B3B5",
"T 	c #919CA7",
"U 	c #2A5073",
"V 	c #2E587F",
"W 	c #4879A0",
"X 	c #629FC6",
"Y 	c #70B5E5",
"Z 	c #74BFF5",
"` 	c #62B0F2",
" .	c #57A5EF",
"..	c #4E92D4",
"+.	c #254463",
"@.	c #19324A",
"#.	c #BEBFBF",
"$.	c #A6ADB5",
"%.	c #284E73",
"&.	c #305B83",
"*.	c #4F82A6",
"=.	c #68A4CB",
"-.	c #70B6E7",
";.	c #76C1F7",
">.	c #4C8ECB",
",.	c #213E59",
"'.	c #263D53",
").	c #B7B9BC",
"!.	c #264D72",
"~.	c #36628B",
"{.	c #2F5272",
"].	c #374A5E",
"^.	c #2B5175",
"/.	c #223B53",
"(.	c #495B6C",
"_.	c #3B5E7F",
":.	c #223A52",
"<.	c #596877",
"[.	c #415F7B",
"}.	c #213951",
"|.	c #65727E",
"1.	c #516B85",
"2.	c #2A4F72",
"3.	c #213950",
"4.	c #78828D",
"5.	c #647A90",
"6.	c #2A4E71",
"7.	c #20384F",
"8.	c #858E96",
"9.	c #728699",
"0.	c #969CA2",
"a.	c #8494A4",
"b.	c #294D6F",
"c.	c #1F374E",
"d.	c #ACB0B3",
"e.	c #909CA7",
"f.	c #284C6F",
"g.	c #173047",
"h.	c #BABABB",
"i.	c #A0A7AF",
"j.	c #294F73",
"k.	c #284B6D",
"l.	c #1F364E",
"m.	c #516171",
"n.	c #ACAFB2",
"o.	c #284A6B",
"p.	c #1E364D",
"q.	c #32485C",
"r.	c #BABCBD",
"s.	c #B5B5B6",
"t.	c #284969",
"u.	c #223A50",
"v.	c #BBBAB9",
"w.	c #375A7B",
"x.	c #274969",
"y.	c #8D969E",
"z.	c #9AA1A7",
"A.	c #5E7286",
"B.	c #2D5070",
"C.	c #274867",
"D.	c #1D354D",
"E.	c #1B334B",
"F.	c #6C7986",
"G.	c #B9BABA",
"H.	c #818C96",
"I.	c #4B647C",
"J.	c #274C70",
"K.	c #274766",
"L.	c #1D344C",
"M.	c #46596C",
"N.	c #C0C0C0",
"O.	c #ACAEB1",
"P.	c #72808F",
"Q.	c #385673",
"R.	c #284E72",
"S.	c #264664",
"T.	c #2E4459",
"U.	c #B7B9BB",
"V.	c #C0C0BF",
"W.	c #999FA6",
"X.	c #5F7487",
"Y.	c #2C4E6E",
"Z.	c #21384F",
"`.	c #A1A6AA",
" +	c #BCBDBD",
".+	c #818B95",
"++	c #445D75",
"@+	c #274C6F",
"#+	c #264462",
"$+	c #828C94",
"%+	c #ABADAF",
"&+	c #728291",
"*+	c #395874",
"=+	c #244360",
"-+	c #667482",
". . . . . . . . . . . . . . . . . . . . . . . . . . . . . . . . ",
". + + + + + + + + + @ # $ % & * = - ; > , + + + + + + + + + + . ",
". + + + + + + + ' ) ! % ~ ~ ~ ~ % % % { % ] ^ / ( _ + + + + + . ",
". + + + + + + : < % ~ ~ % % ~ % ~ % % % ~ % % % % % [ } | 1 2 . ",
". + + + + 3 4 % ~ ~ % ~ % % % % % ~ % % ~ ~ % % % % % % % 5 6 . ",
". + + 7 8 % % ~ % % % % % % % % ~ ~ % ~ ~ % % % ~ % ~ % 9 0 a . ",
". b c * ~ ~ % % ~ % % % % ~ ~ ~ ~ % ~ ~ % ~ % % % % d e f g h . ",
". i j k l m ~ % ~ % ~ % % % % ~ ~ ~ ~ ~ % % ~ % % n o g p p q . ",
". r s t u v w x y z A ~ ~ % % ~ % % ~ % ~ % ~ ~ B C D p g E F . ",
". G s H s H I t J K L M N O d ~ ~ ~ ~ % % ~ ~ P Q D p p g R S . ",
". T s s H s s s s s U I V W X Y Z `  .% % ~ ..+.D p p p p @.#.. ",
". $.%.s s s s s s s s s s s U H &.*.=.-.;.>.,.p p p p g g '.+ . ",
". ).!.H s H H s s s s H s s s s H s U H ~.{.p g p p p p g ].+ . ",
". + ^.s s s s s s s s s s s s s H H s H s /.p p p p g p p (.+ . ",
". + _.H s s s H s s H s s s s H s U s s H :.p p p p p p g <.+ . ",
". + [.s H s s s s s H s s s H s s H s H U }.p p p p p p p |.+ . ",
". + 1.s H s H H H s s H s H s s s H s s 2.3.g p g p g p p 4.+ . ",
". + 5.H s s H s s s H s H H s s s H s s 6.7.p p g p p p g 8.+ . ",
". + 9.s s H H s s s H H s s s H H s s s Q 7.g p p p p g g 0.+ . ",
". + a.s s s s H s s s H s s s s s s s H b.c.p g p p p p R d.+ . ",
". + e.s H s H H s s H s s s H H s s s s f.c.p g p g p p g.h.+ . ",
". + i.j.s s H s H s s H s H s s s s s s k.l.p p g p p D m.+ + . ",
". + n.!.s s s s s s s s s s H s s s H H o.p.g p p p p q.r.+ + . ",
". + s.^.s s s H s H s H H s s s s H H H t.p.p p g p u.d.+ + + . ",
". + v.w.s s H s s s H s H s s s s H s H x.p.p p g E y.+ + + + . ",
". + + z.A.B.H s H s s s s s H s s s H s C.D.p p E.F.+ + + + + . ",
". + + + + G.H.I.J.s H H s H H s s s H s K.L.p g M.N.+ + + + + . ",
". + + + + + + + O.P.Q.R.s H s s s H s s S.p p T.U.+ + + + + + . ",
". + + + + + + + + + V.W.X.Y.H s s s I s S.p Z.`.+ + + + + + + . ",
". + + + + + + + + + + + +  +.+++@+H H s #+E $++ + + + + + + + . ",
". + + + + + + + + + + + + + + + %+&+*+R.=+-++ + + + + + + + + . ",
". . . . . . . . . . . . . . . . . . . . . . . . . . . . . . . . "};
