/* XPM */
static char * render_liquidLight_xpm[] = {
"32 32 63 1",
" 	c None",
".	c #999999",
"+	c #C1C1C1",
"@	c #BEBEBE",
"#	c #BDBDBD",
"$	c #C0C0C0",
"%	c #BFBFBF",
"&	c #BCBCBC",
"*	c #BABABA",
"=	c #B9B9B9",
"-	c #BBBBBB",
";	c #C5C5C5",
">	c #EBEBEB",
",	c #D0D0D0",
"'	c #B6B6B6",
")	c #DCDCDC",
"!	c #E4E4E4",
"~	c #E5E5E5",
"{	c #DFDFDF",
"]	c #C2C2C2",
"^	c #EAEAEA",
"/	c #E3E3E3",
"(	c #E2E2E2",
"_	c #E6E6E6",
":	c #D8D8D8",
"<	c #CBCBCB",
"[	c #FFFFFF",
"}	c #ADADAD",
"|	c #EDEDED",
"1	c #F5F5F5",
"2	c #F6F6F6",
"3	c #F4F4F4",
"4	c #F2F2F2",
"5	c #C6C6C6",
"6	c #B3B3B3",
"7	c #FEFEFE",
"8	c #F1F1F1",
"9	c #F7F7F7",
"0	c #C8C8C8",
"a	c #E0E0E0",
"b	c #A7A7A7",
"c	c #FBFBFB",
"d	c #A8A8A8",
"e	c #D7D7D7",
"f	c #D5D5D5",
"g	c #E8E8E8",
"h	c #AAAAAA",
"i	c #DBDBDB",
"j	c #B2B2B2",
"k	c #B7B7B7",
"l	c #DEDEDE",
"m	c #A6A6A6",
"n	c #A9A9A9",
"o	c #F9F9F9",
"p	c #FDFDFD",
"q	c #FAFAFA",
"r	c #B1B1B1",
"s	c #C3C3C3",
"t	c #C4C4C4",
"u	c #B4B4B4",
"v	c #E7E7E7",
"w	c #D4D4D4",
"x	c #CCCCCC",
"................................",
".++++++++++++++++++++++++++++++.",
".++++++++++++++++++++++++++++++.",
".++++++++++++++++++++++++++++++.",
".++++++++++++++++++++++++++++++.",
".++++++++++++++++++++++++++++++.",
".++++++++++++++++++++++++++++++.",
".++++++++++++++++++++++++++++++.",
".++++++++++++++++++++++++++++++.",
".++++++++++++++++++++++++++++++.",
".++++++++++++++++++++++++++++++.",
".++++++++++++++++++++++++++++++.",
".@#@$+%##@@&*==&###@$%##--===*#.",
".;>;%+#,>'&)!~!{#]>;%#,>=^/((_:.",
".<[<@+*![}|[123[4;[5'6{['78[[9~.",
".0[0#+=a[bc[d+%ef%[>g~1[}=h[ij-.",
".0[+jk6l[mc7n~9[o@[opq7[r+r[a=+.",
".<[p7[/a[}8[34|[1s[t6rl[u+u[!*+.",
".;v(/_wx>'&)!~!a$+>;%#,>=+=>,#+.",
".@-==*--#@@&*==-###@$%##@+@##%+.",
".++++++++++++++++++++++++++++++.",
".++++++++++++++++++++++++++++++.",
".++++++++++++++++++++++++++++++.",
".++++++++++++++++++++++++++++++.",
".++++++++++++++++++++++++++++++.",
".++++++++++++++++++++++++++++++.",
".++++++++++++++++++++++++++++++.",
".++++++++++++++++++++++++++++++.",
".++++++++++++++++++++++++++++++.",
".++++++++++++++++++++++++++++++.",
".++++++++++++++++++++++++++++++.",
"................................"};
