/* XPM */
static char * render_liquidRibBox_xpm[] = {
"32 32 69 1",
" 	c None",
".	c #999999",
"+	c #C0C0C0",
"@	c #BDBDBD",
"#	c #BABABA",
"$	c #B7B7B7",
"%	c #B9B9B9",
"&	c #BCBCBC",
"*	c #BBBBBB",
"=	c #B8B8B8",
"-	c #BEBEBE",
";	c #BFBFBF",
">	c #CBCBCB",
",	c #FFFFFF",
"'	c #DCDCDC",
")	c #B6B6B6",
"!	c #F4F4F4",
"~	c #EBEBEB",
"{	c #C7C7C7",
"]	c #D7D7D7",
"^	c #DADADA",
"/	c #D6D6D6",
"(	c #FEFEFE",
"_	c #F5F5F5",
":	c #B1B1B1",
"<	c #EEEEEE",
"[	c #B4B4B4",
"}	c #ECECEC",
"|	c #C9C9C9",
"1	c #C6C6C6",
"2	c #EDEDED",
"3	c #DEDEDE",
"4	c #B5B5B5",
"5	c #F7F7F7",
"6	c #EAEAEA",
"7	c #FAFAFA",
"8	c #F1F1F1",
"9	c #D2D2D2",
"0	c #C5C5C5",
"a	c #C8C8C8",
"b	c #E6E6E6",
"c	c #CCCCCC",
"d	c #F9F9F9",
"e	c #F8F8F8",
"f	c #E7E7E7",
"g	c #F3F3F3",
"h	c #F6F6F6",
"i	c #C1C1C1",
"j	c #C3C3C3",
"k	c #CFCFCF",
"l	c #D0D0D0",
"m	c #D9D9D9",
"n	c #D4D4D4",
"o	c #D1D1D1",
"p	c #D3D3D3",
"q	c #CACACA",
"r	c #EFEFEF",
"s	c #F0F0F0",
"t	c #DDDDDD",
"u	c #B2B2B2",
"v	c #B0B0B0",
"w	c #F2F2F2",
"x	c #FBFBFB",
"y	c #E0E0E0",
"z	c #FCFCFC",
"A	c #D8D8D8",
"B	c #FDFDFD",
"C	c #DFDFDF",
"D	c #C2C2C2",
"................................",
".++++++++++++++++++++++++++++++.",
".++++++++++++++++++++++++++++++.",
".++++++++++++++++++++++++++++++.",
".++++++++++++++++++++++++++++++.",
".++++++++++++++++++++++++++++++.",
".++++++++++++++++++++++++++++++.",
".+++++@#$$$$%&&***#$$$$=*-+++++.",
".++++;>,,,,,,'),!#,,,,,,~*+++++.",
".++++-{,~]^/(_:,<[,}{|12,;+++++.",
".++++-{,3)%45!:,<[,_6<~78$;++++.",
".++++-{,,,,,,9:,<[,8]^]},0;++++.",
".++++-a,b>c>,![,8[,!^''<,c;++++.",
".++++;ad^*;*<<)ef%egh5!g~&;++++.",
".+++++@&&;+-&&&&&&*%%%%#&-+++++.",
".++++++++++++++++++++++++++++++.",
".++;;---;-++;--@@-;;;---+;+-;i+.",
".+;j9kkkkk@@@l^mm^k&jnl*@*opq++.",
".+;c,,,,,,g)6,,,,,,r%s,t)m,5-++.",
".+-q,/:uvw7u,x-*%#e,)*g,y,h&@;+.",
".+-q,,,,,,yv,g=+;%8,=&;zz(+&+++.",
".+-q,A[4u2,4,B4$=45,)#g,C,!-@++.",
".+-k,((,,,,$r,,,,,,w*5,^)n,di++.",
".+;D^]]]mA1#-nt''t]-k3n*-*93p++.",
".++;@&&&&@-+;@&&&&@--@-;+;-@-;+.",
".++++++++++++++++++++++++++++++.",
".++++++++++++++++++++++++++++++.",
".++++++++++++++++++++++++++++++.",
".++++++++++++++++++++++++++++++.",
".++++++++++++++++++++++++++++++.",
".++++++++++++++++++++++++++++++.",
"................................"};
