/* XPM */
static char * render_liquidCoShader_xpm[] = {
"32 32 49 1",
" 	c None",
".	c #999999",
"+	c #C1C1C1",
"@	c #C3C3C3",
"#	c #E9E9E9",
"$	c #FCFCFC",
"%	c #F4F4F4",
"&	c #CACACA",
"*	c #E4E4E4",
"=	c #D2D2D2",
"-	c #DBDBDB",
";	c #F0F0F0",
">	c #F8F8F8",
",	c #C7C7C7",
"'	c #CDCDCD",
")	c #D3D3D3",
"!	c #F9F9F9",
"~	c #FDFDFD",
"{	c #F6F6F6",
"]	c #F7F7F7",
"^	c #DDDDDD",
"/	c #FEFEFE",
"(	c #C2C2C2",
"_	c #E0E0E0",
":	c #EDEDED",
"<	c #C4C4C4",
"[	c #F2F2F2",
"}	c #C9C9C9",
"|	c #FFFFFF",
"1	c #D9D9D9",
"2	c #FAFAFA",
"3	c #D5D5D5",
"4	c #FBFBFB",
"5	c #CCCCCC",
"6	c #CECECE",
"7	c #BEBEBE",
"8	c #D4D4D4",
"9	c #E6E6E6",
"0	c #E8E8E8",
"a	c #D1D1D1",
"b	c #CFCFCF",
"c	c #F3F3F3",
"d	c #F5F5F5",
"e	c #ECECEC",
"f	c #D8D8D8",
"g	c #D6D6D6",
"h	c #D7D7D7",
"i	c #E3E3E3",
"j	c #E1E1E1",
"................................",
".++++++++++++++++++++++++++++++.",
".++++++++++++++++++++++++++++++.",
".++++++++++++++++++++++++++++++.",
".++++++++++++++++++++++++++++++.",
".++++++++@#$%&+++++++++++++++++.",
".++++++++*=+-;+++++++++++++++++.",
".++++++++>,++'++)!!=+++++++++++.",
".++++++++~++++++{=){+++++++++++.",
".++++++++],+@^++/((/+++++++++++.",
".++++++++*)(_:++{=={+++++++++++.",
".++++++++<:~[}++)!!=+++++++++++.",
".++++++++++++++++++++++++++++++.",
".++++++++++++++++++++++++++++++.",
".+++++++++++++||+++++++++++++++.",
".++++++++++++++++++++++++++++++.",
".++++++++++++++++++++++++++++++.",
".+12!3+|++++++++++++|++++++++++.",
".+456!+|++++++++++++|++++++++++.",
".7%8+++|9~8+*4~#+820|+a>>b+|#[+.",
".+,9c=+|)8~+++}/+{=)|+dbb[+|=(+.",
".+++,!+|++|+)e]|+/((|+/||/+|+++.",
".+!6}!+|++|+48f|+d)=|+{b+++|+++.",
".+g!4h+|++|+0~i|+)20|+)!4j+|+++.",
".++++++++++++++++++++++++++++++.",
".++++++++++++++++++++++++++++++.",
".++++++++++++++++++++++++++++++.",
".++++++++++++++++++++++++++++++.",
".++++++++++++++++++++++++++++++.",
".++++++++++++++++++++++++++++++.",
".++++++++++++++++++++++++++++++.",
"................................"};
