/* XPM */
static char * render_liquidVolume_xpm[] = {
"32 32 66 1",
" 	c None",
".	c #999999",
"+	c #BFBFBF",
"@	c #C0C0C0",
"#	c #C2C2C2",
"$	c #C6C6C6",
"%	c #C9C9C9",
"&	c #CACACA",
"*	c #C8C8C8",
"=	c #C4C4C4",
"-	c #C1C1C1",
";	c #C7C7C7",
">	c #CECECE",
",	c #D6D6D6",
"'	c #DCDCDC",
")	c #DDDDDD",
"!	c #DBDBDB",
"~	c #D7D7D7",
"{	c #D3D3D3",
"]	c #CFCFCF",
"^	c #CBCBCB",
"/	c #C3C3C3",
"(	c #CDCDCD",
"_	c #E0E0E0",
":	c #E9E9E9",
"<	c #EFEFEF",
"[	c #F0F0F0",
"}	c #ECECEC",
"|	c #E8E8E8",
"1	c #E4E4E4",
"2	c #DFDFDF",
"3	c #D4D4D4",
"4	c #D0D0D0",
"5	c #CCCCCC",
"6	c #DEDEDE",
"7	c #F1F1F1",
"8	c #F6F6F6",
"9	c #F9F9F9",
"0	c #FAFAFA",
"a	c #F8F8F8",
"b	c #F4F4F4",
"c	c #F2F2F2",
"d	c #E5E5E5",
"e	c #BEBEBE",
"f	c #D1D1D1",
"g	c #E6E6E6",
"h	c #FBFBFB",
"i	c #FCFCFC",
"j	c #F7F7F7",
"k	c #E1E1E1",
"l	c #D8D8D8",
"m	c #E3E3E3",
"n	c #EBEBEB",
"o	c #FDFDFD",
"p	c #EDEDED",
"q	c #F5F5F5",
"r	c #E2E2E2",
"s	c #F3F3F3",
"t	c #D5D5D5",
"u	c #EEEEEE",
"v	c #EAEAEA",
"w	c #E7E7E7",
"x	c #D2D2D2",
"y	c #C5C5C5",
"z	c #DADADA",
"A	c #D9D9D9",
"................................",
".+++++++++++@@@@+++++++++++++++.",
".+++++++++@#$%&*$=#-@@+++++++++.",
".+++++++@#;>,')!~{]^%$=/-@+++++.",
".++++++-$(,_:<[<}|12!~345%$#+++.",
".++++-=&36:78909a8bc<}:d_!3^/++.",
".+e@/%f'g<89hiiiihh09jb<}|k3;@+.",
".++=(lmncj0hiiooiiiha8c<pn1~%@e.",
".+-%~dp7bq890ioooh0a8c<}n|r,*@e.",
".+-5':[7csb8a99009jqc<n:|d_t;@+.",
".+-5)n[7cccsq8jaa8b7uv|wwg_3$@+.",
".e-&'v7ccccssbbqqs7uv||||g_xy++.",
".+@%zv[csbbbsssbbcun:||||g2f=++.",
".+@*A:[cbbbbbbbss7}::||||d64=++.",
".e@*l|[csbbbbbbbc<nv:||||1'>/++.",
".+@$,w[csbbbbbbbs[}vv:|||1!(#++.",
".++y{d<csbbbbbbbs[pvv:||wmz^-++.",
".++=fmuccbbbbbbbs7pvv|||wml&-++.",
".++/]kpccbbbbbbbs7pv:|||gr,%@++.",
".++#>2p7cbbbbbbbs7pv:|||d2{$@++.",
".++#56}7cscssbbbs7pv|||grz>/+++.",
".+e-^'v[cccccsbbb7p:||w1'x;@+++.",
".++@*~d}<7ccccsbs<}:|wd63%#++++.",
".+++=>Arwnu[7cccc<}:wg_~5/+++++.",
".+++@=&fl61:}<[77<}|grA>=@e++++.",
".+++++-=*({z_dvp<un|m!4$@e+++++.",
".+++++++@#y&]t!rw:|d)x*-+++++++.",
".+++++++ee+-/$^fl)2'3&#++++++++.",
".++++++++++e++-=*(4]%/+++++++++.",
".+++++++++++++e+@#//-++++++++++.",
".+++++++++++++++e++++++++++++++.",
"................................"};
